<?xml version="1.0" encoding="iso-8859-1"?>
<!-- Uploaded to: SVG Repo, www.svgrepo.com, Generator: SVG Repo Mixer Tools -->
<svg
    xmlns="http://www.w3.org/2000/svg"
    viewBox="0 0 24 24"
    width="100"
    height="100"
>
  <!-- Outer Circle -->
  <circle
    cx="12"
    cy="12"
    r="10"
    fill="none"
    stroke="#25D366"
    stroke-width="2"
  />

  <!-- Inner Circle (Logo Background) -->
  <circle
    cx="12"
    cy="12"
    r="9"
    fill="url(#colorChange)"
  />

  <!-- WhatsApp Icon (Phone) -->
  <path
    fill="#fff"
    d="M16.5 13.2c-.6 0-1.3-.3-1.9-.5-.5-.2-.9-.2-1.3.2l-1 .9c-1.3-.5-2.3-1.4-3-2.6l.9-1c.3-.3.5-.7.3-1.3-.2-.6-.5-1.2-.8-1.7-.2-.5-.5-.7-1-.7h-1c-.5 0-1.1.2-1.3.7-.5.6-.8 1.4-.8 2.2.1 2 1 3.8 2.4 5.1 1.5 1.4 3.3 2.3 5.3 2.4.8 0 1.5-.2 2.1-.8.3-.3.5-.8.5-1.3v-1c-.1-.4-.5-.7-1-.7z"
  />

  <!-- Gradient Definition for Animation -->
  <defs>
    <linearGradient id="colorChange" x1="0" y1="0" x2="1" y2="1">
      <stop offset="0%" stop-color="#25D366">
        <animate attributeName="stop-color" values="#25D366; #128C7E; #25D366" dur="2s" repeatCount="indefinite"/>
      </stop>
      <stop offset="100%" stop-color="#128C7E">
        <animate attributeName="stop-color" values="#128C7E; #25D366; #128C7E" dur="2s" repeatCount="indefinite"/>
      </stop>
    </linearGradient>
  </defs>
</svg>
